<svg width="118" height="30" viewBox="0 0 118 30" fill="none" xmlns="http://www.w3.org/2000/svg">
<path d="M7.864 3.08C9.208 3.08 10.24 3.224 10.96 3.512C11.68 3.8 12.304 4.112 12.832 4.448C13.12 4.616 13.348 4.748 13.516 4.844C13.708 4.916 13.888 4.952 14.056 4.952C14.296 4.952 14.464 4.82 14.56 4.556C14.68 4.292 14.776 3.896 14.848 3.368H15.676C15.652 3.824 15.616 4.352 15.568 4.952C15.544 5.552 15.52 6.356 15.496 7.364C15.496 8.348 15.496 9.656 15.496 11.288H14.668C14.596 10.064 14.32 8.888 13.84 7.76C13.384 6.632 12.724 5.708 11.86 4.988C11.02 4.244 9.94 3.872 8.62 3.872C7.444 3.872 6.46 4.22 5.668 4.916C4.9 5.612 4.516 6.548 4.516 7.724C4.516 8.732 4.768 9.584 5.272 10.28C5.776 10.952 6.484 11.612 7.396 12.26C8.332 12.884 9.436 13.604 10.708 14.42C11.884 15.188 12.94 15.956 13.876 16.724C14.812 17.468 15.544 18.296 16.072 19.208C16.624 20.12 16.9 21.236 16.9 22.556C16.9 24.116 16.516 25.412 15.748 26.444C14.98 27.476 13.948 28.244 12.652 28.748C11.356 29.252 9.94 29.504 8.404 29.504C6.988 29.504 5.86 29.36 5.02 29.072C4.204 28.784 3.496 28.484 2.896 28.172C2.368 27.836 1.96 27.668 1.672 27.668C1.432 27.668 1.252 27.8 1.132 28.064C1.036 28.328 0.952 28.724 0.88 29.252H0.0520001C0.1 28.7 0.124 28.052 0.124 27.308C0.148 26.564 0.16 25.604 0.16 24.428C0.184 23.228 0.196 21.716 0.196 19.892H1.024C1.12 21.428 1.384 22.868 1.816 24.212C2.272 25.532 2.956 26.6 3.868 27.416C4.804 28.232 6.04 28.64 7.576 28.64C8.416 28.64 9.172 28.496 9.844 28.208C10.54 27.896 11.092 27.428 11.5 26.804C11.908 26.156 12.112 25.34 12.112 24.356C12.112 23.372 11.884 22.508 11.428 21.764C10.972 21.02 10.336 20.324 9.52 19.676C8.704 19.028 7.744 18.368 6.64 17.696C5.512 16.976 4.456 16.244 3.472 15.5C2.488 14.756 1.696 13.916 1.096 12.98C0.52 12.02 0.232 10.868 0.232 9.524C0.232 8.036 0.592 6.824 1.312 5.888C2.032 4.928 2.968 4.22 4.12 3.764C5.296 3.308 6.544 3.08 7.864 3.08ZM28.5041 9.884C30.6161 9.884 32.2721 10.52 33.4721 11.792C34.6721 13.064 35.2721 15.092 35.2721 17.876H23.1401L23.1041 17.192H31.0961C31.1441 16.016 31.0721 14.936 30.8801 13.952C30.6881 12.944 30.3761 12.14 29.9441 11.54C29.5361 10.94 28.9961 10.64 28.3241 10.64C27.4121 10.64 26.6201 11.18 25.9481 12.26C25.2761 13.316 24.8561 15.056 24.6881 17.48L24.8321 17.696C24.7841 18.008 24.7481 18.344 24.7241 18.704C24.7241 19.064 24.7241 19.424 24.7241 19.784C24.7241 21.44 24.9641 22.808 25.4441 23.888C25.9241 24.968 26.5481 25.76 27.3161 26.264C28.0841 26.768 28.8761 27.02 29.6921 27.02C30.2441 27.02 30.8081 26.936 31.3841 26.768C31.9601 26.6 32.5241 26.288 33.0761 25.832C33.6281 25.376 34.1321 24.728 34.5881 23.888L35.2721 24.176C35.0081 25.016 34.5641 25.856 33.9401 26.696C33.3401 27.512 32.5601 28.184 31.6001 28.712C30.6401 29.24 29.5121 29.504 28.2161 29.504C26.5841 29.504 25.1441 29.144 23.8961 28.424C22.6481 27.704 21.6761 26.636 20.9801 25.22C20.2841 23.78 19.9361 22.028 19.9361 19.964C19.9361 17.78 20.2961 15.944 21.0161 14.456C21.7601 12.968 22.7801 11.84 24.0761 11.072C25.3721 10.28 26.8481 9.884 28.5041 9.884ZM44.3399 0.811998V13.556C44.9399 12.212 45.7679 11.264 46.8239 10.712C47.9039 10.16 49.0679 9.884 50.3159 9.884C51.2999 9.884 52.1039 10.016 52.7279 10.28C53.3519 10.544 53.8559 10.88 54.2399 11.288C54.6479 11.744 54.9359 12.332 55.1039 13.052C55.2959 13.772 55.3919 14.744 55.3919 15.968V25.652C55.3919 26.66 55.5719 27.344 55.9319 27.704C56.3159 28.064 56.9519 28.244 57.8399 28.244V29C57.4079 28.976 56.7479 28.952 55.8599 28.928C54.9719 28.88 54.0959 28.856 53.2319 28.856C52.3679 28.856 51.5159 28.88 50.6759 28.928C49.8359 28.952 49.1999 28.976 48.7679 29V28.244C49.5359 28.244 50.0759 28.064 50.3879 27.704C50.6999 27.344 50.8559 26.66 50.8559 25.652V14.744C50.8559 14.096 50.7959 13.52 50.6759 13.016C50.5559 12.488 50.3159 12.08 49.9559 11.792C49.6199 11.48 49.1039 11.324 48.4079 11.324C47.6399 11.324 46.9439 11.54 46.3199 11.972C45.7199 12.38 45.2399 12.968 44.8799 13.736C44.5199 14.48 44.3399 15.332 44.3399 16.292V25.652C44.3399 26.66 44.4959 27.344 44.8079 27.704C45.1439 28.064 45.6839 28.244 46.4279 28.244V29C46.0199 28.976 45.4079 28.952 44.5919 28.928C43.7999 28.88 42.9719 28.856 42.1079 28.856C41.2439 28.856 40.3439 28.88 39.4079 28.928C38.4959 28.952 37.8119 28.976 37.3559 29V28.244C38.2439 28.244 38.8679 28.064 39.2279 27.704C39.6119 27.344 39.8039 26.66 39.8039 25.652V5.132C39.8039 4.052 39.6239 3.26 39.2639 2.756C38.9279 2.228 38.2919 1.964 37.3559 1.964V1.208C38.1239 1.28 38.8679 1.316 39.5879 1.316C40.4999 1.316 41.3519 1.28 42.1439 1.208C42.9359 1.112 43.6679 0.979999 44.3399 0.811998ZM66.0321 0.811998V25.652C66.0321 26.66 66.2121 27.344 66.5721 27.704C66.9561 28.064 67.5921 28.244 68.4801 28.244V29C68.0481 28.976 67.3881 28.952 66.5001 28.928C65.6361 28.88 64.7481 28.856 63.8361 28.856C62.9481 28.856 62.0361 28.88 61.1001 28.928C60.1881 28.952 59.5041 28.976 59.0481 29V28.244C59.9361 28.244 60.5601 28.064 60.9201 27.704C61.3041 27.344 61.4961 26.66 61.4961 25.652V5.132C61.4961 4.052 61.3281 3.26 60.9921 2.756C60.6561 2.228 60.0081 1.964 59.0481 1.964V1.208C59.8161 1.28 60.5601 1.316 61.2801 1.316C62.1921 1.316 63.0441 1.28 63.8361 1.208C64.6281 1.112 65.3601 0.979999 66.0321 0.811998ZM87.2266 10.388V11.144C86.7706 11.24 86.3386 11.492 85.9306 11.9C85.5466 12.308 85.1746 13.028 84.8146 14.06L79.3066 29.108C79.0186 29.084 78.7306 29.072 78.4426 29.072C78.1546 29.072 77.8546 29.084 77.5426 29.108L71.0626 13.16C70.7026 12.248 70.3306 11.684 69.9466 11.468C69.5626 11.252 69.2386 11.144 68.9746 11.144V10.388C69.6466 10.436 70.3426 10.484 71.0626 10.532C71.7826 10.556 72.5746 10.568 73.4386 10.568C74.1826 10.568 74.9626 10.556 75.7786 10.532C76.6186 10.484 77.3986 10.436 78.1186 10.388V11.144C77.5906 11.144 77.1106 11.18 76.6786 11.252C76.2706 11.324 75.9946 11.516 75.8506 11.828C75.7066 12.116 75.7666 12.632 76.0306 13.376L80.3506 24.572L80.0266 24.968L83.3026 16.076C83.7106 14.948 83.8786 14.036 83.8066 13.34C83.7346 12.644 83.4706 12.116 83.0146 11.756C82.5826 11.396 81.9586 11.192 81.1426 11.144V10.388C81.5506 10.412 81.9346 10.436 82.2946 10.46C82.6786 10.484 83.0506 10.508 83.4106 10.532C83.7946 10.532 84.1546 10.532 84.4906 10.532C84.9946 10.532 85.4866 10.52 85.9666 10.496C86.4706 10.472 86.8906 10.436 87.2266 10.388ZM96.8127 9.884C98.9247 9.884 100.581 10.52 101.781 11.792C102.981 13.064 103.581 15.092 103.581 17.876H91.4487L91.4127 17.192H99.4047C99.4527 16.016 99.3807 14.936 99.1887 13.952C98.9967 12.944 98.6847 12.14 98.2527 11.54C97.8447 10.94 97.3047 10.64 96.6327 10.64C95.7207 10.64 94.9287 11.18 94.2567 12.26C93.5847 13.316 93.1647 15.056 92.9967 17.48L93.1407 17.696C93.0927 18.008 93.0567 18.344 93.0327 18.704C93.0327 19.064 93.0327 19.424 93.0327 19.784C93.0327 21.44 93.2727 22.808 93.7527 23.888C94.2327 24.968 94.8567 25.76 95.6247 26.264C96.3927 26.768 97.1847 27.02 98.0007 27.02C98.5527 27.02 99.1167 26.936 99.6927 26.768C100.269 26.6 100.833 26.288 101.385 25.832C101.937 25.376 102.441 24.728 102.897 23.888L103.581 24.176C103.317 25.016 102.873 25.856 102.249 26.696C101.649 27.512 100.869 28.184 99.9087 28.712C98.9487 29.24 97.8207 29.504 96.5247 29.504C94.8927 29.504 93.4527 29.144 92.2047 28.424C90.9567 27.704 89.9847 26.636 89.2887 25.22C88.5927 23.78 88.2447 22.028 88.2447 19.964C88.2447 17.78 88.6047 15.944 89.3247 14.456C90.0687 12.968 91.0887 11.84 92.3847 11.072C93.6807 10.28 95.1567 9.884 96.8127 9.884ZM112.72 4.484V10.424H117.328V11.144H112.72V25.472C112.72 26.336 112.876 26.948 113.188 27.308C113.5 27.668 113.944 27.848 114.52 27.848C115.072 27.848 115.576 27.644 116.032 27.236C116.488 26.804 116.896 26.096 117.256 25.112L117.904 25.4C117.544 26.576 116.98 27.56 116.212 28.352C115.468 29.12 114.412 29.504 113.044 29.504C112.228 29.504 111.532 29.396 110.956 29.18C110.404 28.988 109.924 28.7 109.516 28.316C108.988 27.764 108.628 27.104 108.436 26.336C108.268 25.568 108.184 24.548 108.184 23.276V11.144H105.016V10.424H108.184V5.42C109.048 5.396 109.852 5.312 110.596 5.168C111.34 5.024 112.048 4.796 112.72 4.484Z" fill="#2F2F2F"/>
</svg>
